<svg width="437" height="71" xmlns="http://www.w3.org/2000/svg" xmlns:xlink="http://www.w3.org/1999/xlink"><defs><path id="a" d="M.35.23h19.932v31.627H.35z"/></defs><g fill="none" fill-rule="evenodd"><path d="M235.5 69.5L266 16" stroke="#C75B12" stroke-width="2" stroke-linecap="square"/><path d="M90.867 38.222c.181 0 .218-.108.181-.218l-3.246-8.942c-.035-.145-.072-.327-.181-.327-.108 0-.18.182-.216.327l-3.318 8.907c-.037.145 0 .253.145.253h6.635zm-7.358 1.81c-.181 0-.252.072-.324.29l-1.95 5.177c-.36.905-.539 1.774-.539 2.209 0 .651.324 1.123 1.443 1.123h.54c.433 0 .541.072.541.29 0 .288-.216.36-.613.36-1.154 0-2.705-.108-3.824-.108-.397 0-2.38.108-4.256.108-.468 0-.686-.072-.686-.36 0-.218.144-.29.433-.29.326 0 .83-.037 1.12-.073 1.659-.217 2.343-1.449 3.065-3.259l9.054-22.738c.433-1.05.649-1.446 1.011-1.446.324 0 .54.325.902 1.158.865 1.99 6.637 16.763 8.946 22.266 1.37 3.259 2.416 3.765 3.173 3.945.541.11 1.083.147 1.516.147.287 0 .468.035.468.29 0 .288-.323.36-1.658.36-1.3 0-3.933 0-6.82-.072-.648-.036-1.08-.036-1.08-.288 0-.218.145-.29.505-.327.252-.073.505-.398.324-.833l-2.887-7.675c-.071-.182-.179-.254-.36-.254h-8.044zm39.594 7.721c0 .842 0 .88-.393 1.098-2.107 1.061-5.216 1.391-7.682 1.391-7.718 0-14.544-3.584-14.544-12.18 0-4.973 2.61-8.449 5.503-10.168 3.002-1.79 5.825-2.012 8.468-2.012 2.182 0 4.932.366 5.575.512.644.112 1.75.293 2.503.33.357.035.427.147.427.366 0 .367-.214 1.207-.214 5.12 0 .476-.179.695-.427.695-.216 0-.286-.146-.323-.402-.07-.694-.25-1.682-1.072-2.561-.93-.987-3.289-2.376-6.825-2.376-1.716 0-3.896.035-6.076 1.829-1.75 1.463-2.893 3.766-2.893 7.57 0 6.692 4.216 11.558 10.934 11.558.821 0 1.464 0 2.216-.33.464-.22.607-.549.607-1.098v-2.852c0-1.535 0-2.705-.036-3.657-.034-1.06-.357-1.39-1.357-1.684-.25-.072-.786-.11-1.216-.11-.284 0-.5-.144-.5-.327 0-.256.25-.293.68-.293 1.643 0 3.895.072 4.825.072 1 0 2.643-.072 3.68-.072.427 0 .643.037.643.293 0 .183-.18.328-.394.328-.25 0-.5.037-.859.11-.856.146-1.177.585-1.213 1.683-.037.952-.037 2.194-.037 3.73v3.437m12.404-8.963c0 3.54 0 6.304.183 7.853.11 1.07.333 1.881 1.441 2.027.517.075 1.33.15 1.846.15.479 0 .627.11.627.295 0 .256-.259.366-.813.366-2.324 0-4.65-.11-5.61-.11s-3.285.11-4.689.11c-.514 0-.774-.073-.774-.366 0-.185.147-.296.553-.296.554 0 .998-.074 1.33-.15.739-.145.922-.956 1.07-2.026.185-1.55.185-4.314.185-7.852v-6.489c0-5.604 0-6.635-.073-7.815-.075-1.254-.37-1.843-1.589-2.103-.296-.073-.923-.11-1.439-.11-.369 0-.627-.073-.627-.294 0-.295.294-.37.85-.37.958 0 2.028.038 2.989.038.958.037 1.807.073 2.324.073 1.404 0 8.897 0 9.745-.036.702-.037 1.144-.037 1.514-.148.221-.072.406-.222.59-.222.148 0 .258.15.258.333 0 .258-.183.7-.294 1.658-.037.368-.11 2.544-.185 2.987-.038.295-.11.516-.369.516-.258 0-.333-.183-.37-.591 0-.293 0-.884-.221-1.4-.259-.516-1.033-1.07-2.435-1.105l-5.686-.112c-.22 0-.331.112-.331.518v9.215c0 .223.035.333.258.333l4.724-.037c.629 0 1.145 0 1.662-.038.7-.035 1.218-.185 1.587-.663.183-.22.258-.369.479-.369.148 0 .223.11.223.331 0 .223-.186 1.144-.296 2.286a49.102 49.102 0 0 0-.148 2.692c0 .333 0 .701-.368.701-.223 0-.296-.258-.296-.518 0-.258-.073-.699-.221-1.142-.185-.516-.74-1.18-1.883-1.327-.924-.11-4.836-.11-5.463-.11-.185 0-.258.073-.258.33v2.988m14.215-3.879c0-4.736 0-5.617-.037-6.607-.074-1.064-.4-1.433-1.092-1.652a4.06 4.06 0 0 0-1.164-.147c-.326 0-.509-.073-.509-.367 0-.184.255-.257.764-.257 1.2 0 3.382.073 4.293.073.799 0 2.873-.073 4.109-.073.4 0 .655.073.655.257 0 .294-.183.367-.51.367-.326 0-.58.037-.945.11-.873.147-1.127.588-1.2 1.69-.073.99-.073 1.87-.073 6.606v5.504c0 3.01 0 5.507.146 6.826.109.845.328 1.322 1.272 1.469.437.074 1.164.111 1.638.111.363 0 .509.183.509.33 0 .22-.255.329-.618.329-2.11 0-4.293-.11-5.165-.11-.729 0-2.91.11-4.183.11-.4 0-.618-.11-.618-.33 0-.146.109-.329.51-.329.471 0 .835-.037 1.126-.111.655-.147.837-.587.946-1.504.146-1.284.146-3.782.146-6.79v-5.505m16.56 2.421c0 .331.073.44.287.55.68.22 1.607.295 2.395.295 1.25 0 1.678-.11 2.214-.514.966-.698 2.038-2.056 2.038-4.624 0-4.405-2.931-5.542-4.788-5.542-.787 0-1.537.035-1.86.11-.213.072-.286.184-.286.439v9.286zm-4-2.421c0-4.736 0-5.617-.036-6.607-.073-1.064-.357-1.395-1.36-1.69-.25-.072-.786-.11-1.25-.11-.322 0-.536-.109-.536-.329 0-.221.25-.294.716-.294 1.643 0 3.644.073 4.287.073 1.072 0 3.932-.073 4.895-.073 2.003 0 4.289.185 5.969 1.322.893.623 2.216 2.201 2.216 4.295 0 2.311-1.289 4.365-4.362 6.898 2.789 3.525 5.005 6.35 6.898 8.296 1.75 1.798 2.86 1.945 3.36 2.055.322.074.5.074.75.074s.392.183.392.33c0 .256-.215.329-.606.329h-3.003c-1.75 0-2.609-.182-3.43-.623-1.358-.696-2.538-2.165-4.288-4.588-1.25-1.687-2.573-3.78-2.966-4.257-.18-.183-.357-.22-.57-.22l-2.826-.073c-.143 0-.25.073-.25.255v.441c0 2.9.037 5.323.18 6.644.107.917.25 1.504 1.214 1.65.465.075 1.143.112 1.536.112.252 0 .393.183.393.33 0 .22-.248.329-.641.329-1.823 0-4.432-.11-4.896-.11-.608 0-2.609.11-3.859.11-.393 0-.609-.11-.609-.33 0-.146.107-.329.5-.329.466 0 .823-.037 1.11-.111.643-.147.82-.734.927-1.651.145-1.321.145-3.782.145-6.644v-5.504z" fill="#FFFFFE"/><path d="M182.56 49.435c-.513-.218-.622-.365-.622-1.06 0-1.682.146-3.62.182-4.132 0-.475.146-.805.404-.805.292 0 .33.293.33.512 0 .402.109 1.06.29 1.61.697 2.303 3.114 3.073 5.129 3.073 2.783 0 4.467-1.757 4.467-3.95 0-1.354-.33-2.708-3.186-4.39l-1.868-1.098c-3.808-2.23-5.052-4.315-5.052-7.058 0-3.803 3.661-6.255 8.129-6.255 2.087 0 3.735.293 4.576.512.294.074.44.184.44.403 0 .402-.11 1.281-.11 3.73 0 .659-.146.99-.402.99-.221 0-.33-.184-.33-.55 0-.293-.145-1.244-.842-2.049-.477-.584-1.502-1.461-3.589-1.461-2.308 0-4.394 1.205-4.394 3.327 0 1.39.512 2.486 3.405 4.096l1.32.73c4.246 2.34 5.564 4.72 5.564 7.535 0 2.305-.878 4.17-3.22 5.816-1.54 1.098-3.664 1.281-5.385 1.281-1.866 0-3.844-.183-5.236-.807m24.48-21.245l-4.796.107c-1.868.035-2.636.253-3.114.936a3.55 3.55 0 0 0-.547 1.047c-.072.25-.147.396-.366.396-.22 0-.293-.18-.293-.506 0-.504.622-3.458.696-3.71.072-.397.182-.578.366-.578.256 0 .584.252 1.39.36.952.108 2.161.145 3.223.145h13.07c1.025 0 1.722-.072 2.197-.145.512-.071.768-.142.878-.142.22 0 .256.179.256.646 0 .649-.072 2.92-.072 3.713-.038.325-.11.504-.294.504-.256 0-.328-.145-.365-.612l-.038-.325c-.072-.793-.915-1.729-3.807-1.765l-4.064-.071v12.393c0 2.81.038 5.224.184 6.558.11.864.292 1.44 1.244 1.584.44.073 1.171.11 1.648.11.366 0 .513.178.513.323 0 .215-.256.323-.624.323-2.124 0-4.283-.108-5.198-.108-.733 0-2.93.108-4.21.108-.403 0-.622-.108-.622-.323 0-.145.11-.324.512-.324.476 0 .878-.036 1.135-.11.659-.144.84-.719.952-1.62.147-1.297.147-3.712.147-6.521V28.19M73.84 60.138h5.33v1.072h-4.04v3.288h3.73v1.058h-3.73v4.479h-1.29v-9.897m12.523 5.785l-.995-2.848c-.222-.647-.37-1.234-.52-1.807h-.03c-.148.573-.296 1.19-.505 1.791l-.979 2.864h3.03zm-3.296 1l-1.039 3.112h-1.336l3.415-9.897h1.542l3.417 9.897h-1.38l-1.072-3.112h-3.547zm10.249-2.105h1.236c1.292 0 2.11-.743 2.11-1.865 0-1.269-.874-1.822-2.151-1.822-.583 0-.985.043-1.195.102v3.585zm-1.205-4.475c.61-.116 1.498-.205 2.317-.205 1.29 0 2.136.264 2.706.802.457.437.735 1.109.735 1.88 0 1.283-.778 2.143-1.75 2.492v.045c.71.262 1.139.961 1.362 1.982.305 1.37.527 2.317.72 2.696h-1.25c-.15-.292-.359-1.121-.608-2.346-.278-1.355-.792-1.865-1.889-1.91h-1.138v4.256h-1.205v-9.692zm18.325 5.346c-.072-1.381-.158-3.056-.158-4.275h-.029a75.728 75.728 0 0 1-1.222 3.76l-1.712 4.803h-.95l-1.58-4.715c-.461-1.409-.837-2.673-1.109-3.848h-.029c-.029 1.235-.1 2.88-.186 4.378l-.259 4.243h-1.195l.676-9.897h1.598l1.654 4.787c.402 1.218.719 2.306.977 3.334h.03c.258-1 .602-2.086 1.035-3.334l1.726-4.787h1.596l.604 9.897h-1.238l-.23-4.346m17.425 3.891c-.46.226-1.427.455-2.647.455-2.825 0-4.936-1.706-4.936-4.863 0-3.014 2.125-5.034 5.234-5.034 1.235 0 2.037.256 2.378.427l-.327 1.01c-.474-.228-1.174-.4-2.007-.4-2.349 0-3.91 1.438-3.91 3.955 0 2.359 1.412 3.852 3.835 3.852.804 0 1.608-.156 2.128-.398l.251.995m4.282-4.761h1.234c1.291 0 2.108-.743 2.108-1.865 0-1.269-.873-1.822-2.15-1.822-.582 0-.984.043-1.192.102v3.585zm-1.207-4.475a13.42 13.42 0 0 1 2.317-.205c1.29 0 2.137.264 2.705.802.457.437.735 1.109.735 1.88 0 1.283-.776 2.143-1.747 2.492v.045c.706.262 1.137.961 1.359 1.982.305 1.37.526 2.317.721 2.696h-1.248c-.152-.292-.362-1.121-.611-2.346-.278-1.355-.79-1.865-1.886-1.91h-1.138v4.256h-1.207v-9.692zm14.791 5.052h-3.66v3.568h4.094v1.072h-5.329v-9.897h5.119v1.072h-3.885v3.127h3.661v1.058m5.436 3.57a9.51 9.51 0 0 0 1.209.059c2.57 0 3.943-1.503 3.943-4.133.015-2.297-1.221-3.755-3.75-3.755-.618 0-1.086.058-1.402.13v7.699zm-1.196-8.61a14.739 14.739 0 0 1 2.544-.217c1.716 0 2.94.436 3.749 1.214.839.795 1.32 1.921 1.32 3.496 0 1.59-.481 2.89-1.333 3.785-.878.91-2.308 1.402-4.107 1.402a18.64 18.64 0 0 1-2.173-.116v-9.564zm11.419 9.68h1.487v-9.897h-1.487zm7.382-8.811h-2.814v-1.086h6.85v1.086h-2.827v8.81h-1.21v-8.81m13.657 7.77c.26.043.602.057 1.047.057 1.29 0 2.479-.476 2.479-1.892 0-1.313-1.133-1.877-2.494-1.877h-1.032v3.712zm0-4.651h1.132c1.305 0 2.078-.707 2.078-1.646 0-1.128-.846-1.59-2.107-1.59-.573 0-.902.044-1.103.087v3.149zm-1.246-3.988c.545-.129 1.418-.217 2.278-.217 1.247 0 2.05.217 2.637.709.502.377.817.952.817 1.72 0 .952-.631 1.776-1.634 2.137v.043c.918.217 1.992.982 1.992 2.428 0 .837-.329 1.487-.83 1.948-.66.623-1.749.912-3.325.912-.86 0-1.52-.059-1.935-.116v-9.564zm14.807 5.568l-.995-2.848a23.022 23.022 0 0 1-.518-1.807h-.032c-.146.573-.297 1.19-.503 1.791l-.98 2.864h3.028zm-3.296 1l-1.04 3.112h-1.336l3.415-9.897h1.545l3.414 9.897h-1.38l-1.07-3.112h-3.548zm9.043 3.112v-9.897h1.444l3.235 5.007c.738 1.16 1.34 2.203 1.805 3.217l.047-.016c-.122-1.322-.15-2.526-.15-4.066v-4.142h1.232v9.897h-1.324l-3.219-5.02c-.71-1.104-1.386-2.233-1.882-3.307l-.045.016c.075 1.248.091 2.437.091 4.082v4.229h-1.234m11.419-9.897h1.252v4.77h.043c.26-.38.52-.731.762-1.055l2.966-3.715h1.554l-3.512 4.2L220 70.034h-1.482l-3.181-4.86-.936 1.087v3.773h-1.252v-9.897M44.533 66.065c.387 0 .74-.027.74-.429 0-.329-.342-.387-.661-.387h-.628v.816h.549zm-.55 1.477h-.457v-2.631h1.156c.713 0 1.07.229 1.07.749 0 .471-.345.675-.788.727l.866 1.155h-.518l-.796-1.137h-.532v1.137zm.558.589c1.19 0 2.128-.81 2.128-1.91 0-1.081-.939-1.893-2.128-1.893-1.201 0-2.144.812-2.144 1.893 0 1.1.943 1.91 2.144 1.91zm-2.672-1.91c0-1.31 1.224-2.276 2.672-2.276 1.436 0 2.656.966 2.656 2.276 0 1.321-1.22 2.291-2.656 2.291-1.448 0-2.672-.97-2.672-2.29zm15.369-19.687c4.783-4.596 12.035-11.51 12.035-11.51s-7.347-7.001-12.035-11.509c-4.704-4.53-9.531-.897-10.949.58l-8.988 9.348 25.449 1.58-25.45 1.582 8.988 9.346c1.4 1.432 6.24 5.11 10.95.584m-45.204.001C7.269 42.03 0 35.018 0 35.018s7.234-6.955 12.034-11.515c4.736-4.502 9.532-.898 10.957.58l8.981 9.354-25.448 1.581L31.972 36.6l-8.98 9.351c-1.426 1.485-6.21 5.077-10.958.585m11.479-34.513C28.098 7.269 35.013 0 35.013 0s6.877 7.246 11.502 12.023c4.541 4.685.896 9.539-.582 10.959l-9.336 8.99L35.013 6.51l-1.579 25.463-9.336-8.99c-1.478-1.42-5.113-6.264-.585-10.96m11.161 40.503l-8.792 8.263a292.11 292.11 0 0 1 3.134 3.156l6.001-6.025-.343-5.394M23.23 58.122c.663.627 1.372 1.308 2.097 2.016l8.93-8.975-.347-5.488-11.834 11.138c.312.44.691.876 1.154 1.31m20.922 2.666l-8.797-8.263-.338 5.394 6.002 6.025a274.664 274.664 0 0 1 3.133-3.156m-8.373-9.63l8.931 8.98c.72-.709 1.428-1.39 2.091-2.017a8.514 8.514 0 0 0 1.157-1.31L36.126 45.676l-.347 5.484" fill="#FFFFFE"/><g transform="translate(28.927 38.062)"><mask id="b" fill="#fff"><use xlink:href="#a"/></mask><path d="M19.474 18.16c2.26-3.92-.806-7.792-2.102-9.013L7.872.23l-.38 5.933L19.474 18.16M6.63 20.568l-.042-.19-.329 5.123-.32-5.122-.05.189L.35 25.76a370.47 370.47 0 0 1 5.91 6.211s2.71-2.925 5.912-6.211l-5.54-5.193" fill="#FFFFFE" mask="url(#b)"/></g><path d="M34.256 44.107l-.384-6.045-9.61 9.086c-1.315 1.244-4.416 5.19-2.13 9.184l12.124-12.225" fill="#FFFFFE"/><text font-family="NexaRustSans-Black03, Nexa Rust Sans" font-size="24" font-weight="700" fill="#F8F8F7"><tspan x="278" y="51">marketing</tspan></text></g></svg>