<?xml version="1.0" encoding="UTF-8"?>
<svg width="1480px" height="915px" viewBox="0 0 1480 915" version="1.1" xmlns="http://www.w3.org/2000/svg" xmlns:xlink="http://www.w3.org/1999/xlink">
    <!-- Generator: Sketch 51.3 (57544) - http://www.bohemiancoding.com/sketch -->
    <title>Group 9</title>
    <desc>Created with Sketch.</desc>
    <defs>
        <linearGradient x1="0%" y1="24.2389356%" x2="95.9869584%" y2="73.6630667%" id="linearGradient-1">
            <stop stop-color="#C75B12" offset="0%"></stop>
            <stop stop-color="#FF8200" offset="100%"></stop>
        </linearGradient>
    </defs>
    <g id="Work" stroke="none" stroke-width="1" fill="none" fill-rule="evenodd">
        <g transform="translate(0.000000, -2323.000000)" id="process">
            <g transform="translate(0.000000, 2059.000000)">
                <g id="Group-9" transform="translate(0.000000, 264.000000)">
                    <rect id="Rectangle-4" fill="#263238" fill-rule="nonzero" x="0" y="0" width="1480" height="915"></rect>
                    <path d="M738,697 C901.476286,697 1034,564.476286 1034,401 C1034,237.523714 901.476286,105 738,105 C574.523714,105 442,237.523714 442,401 C442,564.476286 574.523714,697 738,697 Z" id="Oval-3" stroke="#C1D59F" stroke-width="3" stroke-dasharray="10" fill-rule="nonzero"></path>
                    <path d="M0.5,401.208333 L379,401.208333" id="Line" stroke="#C1D59F" stroke-width="4" stroke-linecap="square" stroke-dasharray="10,20" fill-rule="nonzero"></path>
                    <g id="cycle" transform="translate(314.000000, 39.000000)">
                        <g id="Group-18" transform="translate(0.000000, 268.000000)">
                            <circle id="Oval-2" fill="url(#linearGradient-1)" cx="145" cy="100" r="100"></circle>
                            <g id="np_discover_472140_FFFFFF" transform="translate(92.000000, 50.000000)" fill="#FFFFFF" fill-rule="nonzero">
                                <path d="M50,100 C77.6147727,100 100,77.6147727 100,50 C100,22.3852273 77.6147727,0 50,0 C22.3852273,0 0,22.3852273 0,50 C0,77.6147727 22.3852273,100 50,100 Z M37.8511364,40.7897727 C38.2950227,39.6089773 39.6045455,38.2951136 40.7896591,37.85125 L70.7430682,26.5986364 C73.09125,25.7152955 74.2853409,26.9049205 73.4019318,29.2575 L62.1493182,59.2109091 C61.7054318,60.3917045 60.3959091,61.7055682 59.2107955,62.1494318 L29.2573864,73.4020455 C26.9092045,74.2853864 25.7151136,73.0957614 26.5985227,70.7431818 L37.8511364,40.7897727 Z M50,54.5454545 C52.5123864,54.5454545 54.5454545,52.5123864 54.5454545,50 C54.5454545,47.4876136 52.5123864,45.4545455 50,45.4545455 C47.4876136,45.4545455 45.4545455,47.4876136 45.4545455,50 C45.4545455,52.5123864 47.4876136,54.5454545 50,54.5454545 Z" id="Shape"></path>
                            </g>
                            <text id="Discover,-research-a" font-family="NexaRustSans-Black02, Nexa Rust Sans" font-size="16" font-weight="700" letter-spacing="0.6666667" fill="#F8F8F7">
                                <tspan x="37.4999997" y="243">Discover, research</tspan>
                                <tspan x="56.2306664" y="266">and recommend</tspan>
                            </text>
                        </g>
                        <g id="Group-19" transform="translate(283.000000, 0.000000)">
                            <circle id="Oval-2" fill="url(#linearGradient-1)" cx="141" cy="100" r="100"></circle>
                            <g id="np_design_1731890_FFFFFF" transform="translate(91.000000, 50.000000)" fill="#FFFFFF" fill-rule="nonzero">
                                <path d="M50,0.594456522 C22.7152174,0.594456522 0.594565217,22.7161957 0.594565217,49.9998913 C0.594565217,77.283587 22.7195652,99.4053261 50,99.4053261 C77.2847826,99.4053261 99.4054348,77.2803261 99.4054348,49.9998913 C99.4054348,22.7151087 77.2836957,0.594456522 50,0.594456522 Z M64.3173913,34.4977174 L68.0834783,38.2723913 C68.0834783,38.2723913 64.5551087,43.2613043 59.3581522,49.1506522 L53.4308696,43.2233696 C59.3284783,38.0220652 64.3178261,34.4980435 64.3178261,34.4980435 L64.3173913,34.4977174 Z M27.9173913,24.6429348 L32.3543478,26.8678261 L33.4625,27.4197935 L27.2252174,33.6570761 L26.67325,32.5489239 L24.4483587,28.1119674 L23.4802826,26.1758804 L25.9684348,23.6750109 L27.9173913,24.6429348 Z M21.926413,23.5475 L20.3554348,20.5541304 L23.3488043,22.133587 L25.276413,23.1313804 L22.9327174,25.4623587 L21.926413,23.5475 Z M26.1766304,78.9148913 C25.4760543,79.6154674 24.3466304,79.6282065 23.6588043,78.9361217 C22.9582283,78.2355457 22.9667174,77.1061217 23.6588043,76.4055783 C23.6588043,76.4055783 34.6859783,62.8186217 43.0077174,53.6012304 L48.9859783,59.5794913 C39.7638043,67.8844913 26.1772826,78.9153609 26.1772826,78.9153609 L26.1766304,78.9148913 Z M65.0690217,71.51 L28.4690217,34.91 L34.7147826,28.6642391 L35.5427391,29.4921957 L51.2362174,45.1932826 L57.3842609,51.3413261 L71.307087,65.2717609 L71.319825,65.2717609 L72.1477815,66.0997174 L65.9104989,72.3497174 L65.0690217,71.51 Z M77.7690217,77.9638043 C76.8094457,78.9021522 75.6545652,79.4456522 74.4996739,79.4456522 C73.6802065,79.4456522 72.8607609,79.169663 72.1473913,78.5879783 L67.1584783,73.5862391 L73.3957609,67.3489565 L74.2364565,68.1896522 L78.3847174,72.3506304 C79.8028696,74.0830217 79.3782609,76.3460652 77.7690543,77.9637826 L77.7690217,77.9638043 Z M78.3125,31.9844565 C73.816087,37.6484783 69.43,37.0626087 69.43,37.0626087 L65.6171739,33.2582609 C65.6171739,33.2582609 64.8274348,30.2352174 66.6064783,28.456087 C67.9906087,27.0719565 69.756913,26.596413 72.6059348,26.2736957 C75.0473478,25.9892174 77.0513696,20.5544565 77.0513696,20.5544565 C77.0471228,20.5544565 81.9257174,27.4413043 78.3124565,31.9848913 L78.3125,31.9844565 Z" id="Shape"></path>
                            </g>
                            <text id="collaborate,-create" font-family="NexaRustSans-Black01, Nexa Rust Sans" font-size="16" font-weight="700" letter-spacing="0.6666667" fill="#F8F8F7">
                                <tspan x="4.69733295" y="234">collaborate, create and </tspan>
                                <tspan x="32.7879997" y="257">implement feedback</tspan>
                            </text>
                        </g>
                        <g id="Group-20" transform="translate(566.000000, 268.000000)">
                            <circle id="Oval-2" fill="url(#linearGradient-1)" cx="140" cy="100" r="100"></circle>
                            <g id="np_rocket_667928_FFFFFF" transform="translate(92.000000, 50.000000)" fill="#FFFFFF" fill-rule="nonzero">
                                <path d="M50,0.144871795 C22.575641,0.144871795 0.144871795,22.5807692 0.144871795,50 C0.144871795,77.4192308 22.5807692,99.8551282 50,99.8551282 C77.4192308,99.8551282 99.8551282,77.424359 99.8551282,50 C99.8551282,22.5807692 77.4192308,0.144871795 50,0.144871795 Z M55.1883333,58.5538462 C54.7876923,58.7942308 54.5422949,59.1648205 54.4721923,59.6255641 C54.0064487,62.7054359 53.5857692,65.9606923 52.7093718,67.8487692 C50.9415513,71.6699231 45.4427051,73.7782564 41.8269359,74.8299231 C41.1107949,75.0352564 40.3646282,74.7297615 40.0039872,74.0737179 C39.9739397,74.0236372 39.943891,73.963541 39.9088346,73.8934359 C43.5346038,72.1156154 45.9735782,69.1358718 44.6463987,64.7188205 C44.5562538,64.4133333 44.36595,64.1829615 44.0804885,64.0377308 C43.7950269,63.8925 43.4995654,63.8674615 43.1990782,63.9676179 C41.4712577,64.543541 39.7335654,65.0944256 38.0007449,65.6553103 C37.7102833,65.7504615 37.4248218,65.7304295 37.1493859,65.5952128 C36.5534372,65.2997385 36.0075654,64.9441744 35.5118218,64.5285077 L35.5068128,64.5335167 L35.4867821,64.5084756 L35.461741,64.4884436 L35.4667487,64.4834359 C35.0560949,63.987641 34.6955179,63.4417692 34.4000436,62.8458718 C34.2648256,62.5704359 34.2448,62.2849744 34.3399474,61.9945128 C34.9008449,60.2616923 35.4517295,58.524 36.0276397,56.7961795 C36.1278013,56.4956923 36.1027603,56.1952179 35.9575282,55.9147692 C35.8122974,55.6293077 35.5819256,55.4440128 35.2764385,55.348859 C30.8593872,54.0216795 27.8796436,56.460641 26.1018231,60.0864231 C26.0367192,60.0513667 25.9766231,60.0163103 25.926541,59.9912705 C25.2704897,59.6306936 24.9650026,58.8845013 25.1753359,58.1683218 C26.2270154,54.5525526 28.3353359,49.0537064 32.1564897,47.2858859 C34.0445667,46.4094885 37.2996949,45.9888346 40.3796949,45.5230654 C40.8404385,45.4529538 41.2110282,45.2075654 41.4514128,44.8069244 C48.4826949,33.1683346 59.255259,26.2171808 74.3591051,25.1056423 C74.5093487,25.0956269 74.6545795,25.1256744 74.7797718,25.1807628 L74.7947962,25.1657385 C74.7998038,25.1757551 74.8048115,25.1857705 74.8098192,25.1957872 C74.8198359,25.2007949 74.8298526,25.2058026 74.8348603,25.2108103 L74.8198359,25.2258346 C74.8749244,25.3560397 74.9049718,25.4962705 74.8949564,25.6465013 C73.7781744,40.7503474 66.8320077,51.5234244 55.1885462,58.5541936 L55.1883333,58.5538462 Z" id="Shape"></path>
                                <path d="M64.4384615,40.2294872 C64.4384615,46.4544872 55.0984615,46.4544872 55.0984615,40.2294872 C55.0984615,34.0044872 64.4384615,34.0044872 64.4384615,40.2294872" id="Shape"></path>
                            </g>
                            <text id="Coordinate-launch,-o" font-family="NexaRustSans-Black01, Nexa Rust Sans" font-size="16" font-weight="700" letter-spacing="0.6666667" fill="#F8F8F7">
                                <tspan x="34.8359997" y="243">Coordinate launch, </tspan>
                                <tspan x="52.3399997" y="266">oversee success</tspan>
                            </text>
                        </g>
                        <g id="Group-21" transform="translate(283.000000, 545.000000)">
                            <circle id="Oval-2" fill="url(#linearGradient-1)" cx="141" cy="100" r="100"></circle>
                            <g id="np_graph_887151_FFFFFF" transform="translate(92.000000, 50.000000)" fill="#FFFFFF" fill-rule="nonzero">
                                <path d="M50,-1.57772181e-30 C36.738,-1.57772181e-30 24.02,5.2695 14.645,14.645 C5.27,24.0205 3.55271368e-15,36.739 3.55271368e-15,50 C3.55271368e-15,63.261 5.2695,75.98 14.645,85.355 C24.0205,94.73 36.739,100 50,100 C63.261,100 75.98,94.7305 85.355,85.355 C94.73,75.9795 100,63.261 100,50 C100,36.739 94.7305,24.02 85.355,14.645 C75.9795,5.27 63.261,-3.55271368e-15 50,-1.57772181e-30 Z M73.957,27.605 L73.957,66.667 L63.543,66.667 L63.543,37.714 C67.3672,34.7257 70.8594,31.3351 73.957,27.605 Z M62.5,37.714 L62.5,66.667 L53.125,66.667 L53.125,44.409 C56.4258,42.4988 59.5664,40.2567 62.5,37.7137 L62.5,37.714 Z M52.082,44.4093 L52.082,66.6673 L42.707,66.6673 L42.707,48.7103 C45.9336,47.5697 49.0703,46.1283 52.082,44.4093 Z M41.668,48.7101 L41.668,66.6671 L32.293,66.6671 L32.293,51.2291 C35.4727,50.6666 38.6055,49.8229 41.668,48.7096 L41.668,48.7101 Z M31.25,51.2296 L31.25,66.6676 L21.875,66.6676 L21.875,52.0816 C25.0156,52.065975 28.1484,51.78082 31.25,51.23004 L31.25,51.2296 Z M18.75,68.7496 L77.082,68.7496 C77.66012,68.7496 78.125,69.19882 78.125,69.7574 L78.125,69.827713 C78.125,70.382403 77.66016,70.831613 77.082,70.831613 L18.75,70.831613 C18.17188,70.831613 17.707,70.382393 17.707,69.827713 L17.707,69.7574 C17.707,69.19881 18.17184,68.7496 18.75,68.7496 Z" id="Shape"></path>
                            </g>
                            <text id="Measure,-optimize-an" font-family="NexaRustSans-Black01, Nexa Rust Sans" font-size="16" font-weight="700" letter-spacing="0.6666667" fill="#F8F8F7">
                                <tspan x="44.633333" y="240">Measure, optimize </tspan>
                                <tspan x="73.8733331" y="263">and improve</tspan>
                            </text>
                        </g>
                    </g>
                </g>
            </g>
        </g>
    </g>
</svg>